<svg width="16" height="16" viewBox="0 0 16 16" fill="none" xmlns="http://www.w3.org/2000/svg">
<path fill-rule="evenodd" clip-rule="evenodd" d="M0.666626 8C1.81996 5.07333 4.66663 3 7.99996 3C11.3333 3 14.18 5.07333 15.3333 8C14.18 10.9267 11.3333 13 7.99996 13C4.66663 13 1.81996 10.9267 0.666626 8ZM13.8799 8C12.7799 5.75333 10.5265 4.33333 7.99986 4.33333C5.47319 4.33333 3.21986 5.75333 2.11986 8C3.21986 10.2467 5.47319 11.6667 7.99986 11.6667C10.5265 11.6667 12.7799 10.2467 13.8799 8ZM7.99991 6.33333C8.91991 6.33333 9.66658 7.08 9.66658 8C9.66658 8.92 8.91991 9.66667 7.99991 9.66667C7.07991 9.66667 6.33325 8.92 6.33325 8C6.33325 7.08 7.07991 6.33333 7.99991 6.33333ZM5.00001 8C5.00001 6.34667 6.34667 5 8.00001 5C9.65334 5 11 6.34667 11 8C11 9.65333 9.65334 11 8.00001 11C6.34667 11 5.00001 9.65333 5.00001 8Z" fill="#2F80ED"/>
</svg>
